<svg width="627" height="627" viewBox="0 0 627 627" fill="none" xmlns="http://www.w3.org/2000/svg">
<rect width="627" height="627" rx="313.5" fill="#1775E0"/>
<g clip-path="url(#clip0_335_334)">
<path d="M94.085 251.862V186.449L168.225 228.645V144.877L226.304 111.685V328.207L94.085 251.862Z" fill="white"/>
<path d="M258.687 242.567V94.2861L314.091 60.8342V144.61L388.224 102.317L446.035 136.847L258.687 242.567Z" fill="white"/>
<path d="M475.654 153.167L346.651 229.001L533.643 336.415V271.473L461.561 228.288L532.574 186.895L475.654 153.167Z" fill="white"/>
<path d="M534 373.53V438.838L461.205 397.088V480.231L403.037 513.78L403.75 296.092L534 373.53Z" fill="white"/>
<path d="M317.032 564.809L373.239 531.617V381.205L187.495 488.797L243.694 522.524L314.358 481.301L317.032 564.809Z" fill="white"/>
<path d="M97.9178 439.194L154.66 473.449L283.127 397.088L95.4219 287.17V353.547L169.295 396.375L97.9178 439.194Z" fill="white"/>
</g>
<defs>
<clipPath id="clip0_335_334">
<rect width="439.915" height="503.975" fill="white" transform="translate(94.085 60.8342)"/>
</clipPath>
</defs>
</svg>
