<svg width="597" height="587" viewBox="0 0 597 587" fill="none" xmlns="http://www.w3.org/2000/svg">
<path d="M303.017 0H293.288C131.309 0 0 131.309 0 293.288C0 455.266 131.309 586.576 293.288 586.576H303.017C464.996 586.576 596.305 455.266 596.305 293.288C596.305 131.309 464.996 0 303.017 0Z" fill="#0043FE"/>
<path d="M297.684 325.901C307.32 326.106 314.748 329.998 321.802 334.769C335.966 344.312 347.473 356.679 358.175 369.777C380.072 396.795 398.688 426.315 413.633 457.716C415.823 462.244 415.879 464.77 411.051 467.745C393.09 478.856 373.721 487.508 353.46 493.472C347.005 495.343 345.864 493.248 345.695 487.504C344.666 454.685 341.486 422.11 333.141 390.209C329.866 377.729 325.9 365.417 318.528 354.659C306.048 336.36 290.649 336.416 278.525 355.07C268.065 371.199 263.837 389.666 260.039 408.171C254.669 434.515 252.554 461.234 251.469 488.046C251.245 493.809 250.028 495.137 244.153 493.491C223.578 487.697 203.956 478.936 185.907 467.483C182.165 465.144 181.061 463.199 183.213 458.745C200.876 422.073 222.281 387.889 249.692 357.708C259.047 347.38 269.225 337.894 281.5 331.083C286.447 328.186 291.974 326.417 297.684 325.901Z" fill="white"/>
<path d="M299.426 260.619C291.081 260.75 284.457 257.569 278.04 253.547C260.976 242.751 247.785 227.913 235.417 212.383C215.128 186.604 197.782 158.639 183.701 129.009C181.531 124.519 181.4 121.918 186.208 118.98C204.354 107.676 223.999 98.9774 244.566 93.1411C249.974 91.6256 251.227 92.6172 251.452 98.1929C252.837 131.965 255.718 165.551 264.699 198.351C268.254 211.317 272.539 224.021 280.79 234.93C291.605 249.224 305.918 249.393 316.452 234.93C329.082 217.604 333.554 197.134 337.633 176.646C342.523 151.033 345.221 125.05 345.697 98.9788C345.847 92.7669 347.568 91.4946 353.537 93.3656C374.087 99.2684 393.683 108.09 411.727 119.56C414.907 121.581 416.273 123.302 414.365 127.307C393.633 170.023 368.973 210.007 333.816 242.62C324.872 250.927 315.105 258.206 302.588 260.526C301.537 260.631 300.481 260.662 299.426 260.619Z" fill="white"/>
<path d="M330.71 293.849C331.178 284.494 335.275 276.673 340.533 269.32C354.285 250.048 372.341 235.285 391.239 221.44C413.527 205.198 437.243 191.014 462.095 179.06C466.923 176.703 469.58 176.628 472.817 181.736C483.883 199.729 492.521 219.106 498.506 239.364C500.377 245.464 498.618 246.718 492.631 246.849C456.557 247.878 420.801 251.47 385.981 261.967C375.916 264.773 366.374 269.196 357.728 275.064C342.049 286.159 342.03 301.708 357.859 312.635C373.688 323.562 391.65 327.959 409.912 331.794C437.406 337.425 465.373 340.439 493.436 340.794C499.049 340.888 499.984 342.403 498.544 347.53C492.795 368.409 483.946 388.308 472.293 406.562C470.553 409.256 469.318 412.175 464.808 409.911C420.988 388.525 379.937 363.266 346.932 326.724C341.531 320.851 337.108 314.148 333.835 306.872C331.977 302.768 330.917 298.349 330.71 293.849Z" fill="white"/>
<path d="M265.634 292.989C265.172 300.644 262.651 308.033 258.337 314.375C246.381 333.085 229.766 347.343 212.402 360.702C187.915 379.372 161.583 395.491 133.818 408.807C128.56 411.37 126.334 410.341 123.34 405.626C112.485 388.374 104.143 369.662 98.5675 350.056C96.079 341.075 96.0415 341.243 105.023 340.906C140.329 339.54 175.374 336.191 209.39 325.938C219.887 322.776 230.084 318.809 238.971 312.204C254.108 300.978 254.333 286.571 238.971 275.569C223.311 264.343 204.881 259.815 186.376 255.923C159.136 250.277 131.417 247.257 103.601 246.904C96.9584 246.792 96.3409 244.566 97.9874 239.027C103.793 218.712 112.461 199.326 123.733 181.455C126.39 177.245 128.71 176.384 133.238 178.592C172.904 198.126 210.138 221.177 241.628 252.611C251.508 262.472 260.526 273.081 264.511 286.926C264.988 288.927 265.362 290.95 265.634 292.989Z" fill="white"/>
</svg>
