<svg id="Layer_1" data-name="Layer 1" xmlns="http://www.w3.org/2000/svg" viewBox="0 0 608.45 538.06"><defs><style>.cls-1{fill:#2f2f30;}</style></defs><path class="cls-1" d="M425.85,245.74a21.53,21.53,0,0,1-2.26-.12A20.53,20.53,0,0,1,405.42,223a150.84,150.84,0,0,0,.89-16.35c0-81.93-66.65-148.58-148.58-148.58a20.52,20.52,0,0,1,0-41c104.56,0,189.63,85.06,189.63,189.62a189.71,189.71,0,0,1-1.14,20.81A20.52,20.52,0,0,1,425.85,245.74Z"/><path class="cls-1" d="M80.15,215.06a20.52,20.52,0,0,1-17.92-30.49C113,93.15,228.61,60,320,110.78a193.66,193.66,0,0,1,17.65,11.09A20.52,20.52,0,1,1,314,155.38a152.19,152.19,0,0,0-13.86-8.71c-71.64-39.75-162.26-13.81-202,57.82A20.52,20.52,0,0,1,80.15,215.06Z"/><path class="cls-1" d="M126.18,445.19a20.51,20.51,0,0,1-17.68-10.07,189.78,189.78,0,0,1,85.13-269.38,20.52,20.52,0,1,1,16.93,37.39A150.57,150.57,0,0,0,196,210.69c-70.51,41.72-93.93,133-52.22,203.53a20.52,20.52,0,0,1-17.64,31Z"/><path class="cls-1" d="M352.65,521.75h-.15C248,521,163.47,435.4,164.18,330.84a190,190,0,0,1,1.27-20.8,20.52,20.52,0,1,1,40.77,4.73,151.21,151.21,0,0,0-1,16.35c-.56,81.92,65.64,149,147.56,149.58a20.53,20.53,0,0,1-.13,41.05Z"/><path class="cls-1" d="M383.3,448.1a188.48,188.48,0,0,1-94.7-25.61,192,192,0,0,1-17.44-11.4A20.52,20.52,0,1,1,295.46,378a151.33,151.33,0,0,0,13.7,9,148.56,148.56,0,0,0,203-54.13,20.52,20.52,0,0,1,35.52,20.57,188.38,188.38,0,0,1-115.24,88.21A191,191,0,0,1,383.3,448.1Z"/><path class="cls-1" d="M407.4,372.23a20.52,20.52,0,0,1-9.22-38.87,150.65,150.65,0,0,0,14.2-8.13c68.79-44.5,88.54-136.67,44-205.46a20.52,20.52,0,0,1,34.46-22.3c56.8,87.79,31.58,205.42-56.2,262.22A192.14,192.14,0,0,1,416.59,370,20.35,20.35,0,0,1,407.4,372.23Z"/><circle class="cls-1" cx="438.48" cy="35.8" r="35.8"/><circle class="cls-1" cx="439" cy="502.26" r="35.8"/><circle class="cls-1" cx="35.8" cy="268.68" r="35.8"/><circle class="cls-1" cx="572.65" cy="268.34" r="35.8"/><circle class="cls-1" cx="168.93" cy="501.56" r="35.8"/><circle class="cls-1" cx="168.93" cy="35.8" r="35.8"/></svg>