<svg width="627" height="627" viewBox="0 0 627 627" fill="none" xmlns="http://www.w3.org/2000/svg">
<rect width="627" height="627" fill="#164E4F"/>
<path d="M313.471 350.408C324.589 350.645 333.16 355.135 341.298 360.64C357.64 371.65 370.917 385.92 383.265 401.031C408.529 432.205 430.007 466.264 447.252 502.495C449.778 507.719 449.842 510.633 444.273 514.066C423.549 526.885 401.201 536.868 377.825 543.749C370.377 545.908 369.06 543.49 368.866 536.863C367.679 498.997 364.009 461.413 354.38 424.605C350.603 410.206 346.026 396.001 337.52 383.588C323.121 362.475 305.354 362.54 291.365 384.063C279.298 402.672 274.419 423.979 270.036 445.33C263.841 475.726 261.401 506.553 260.149 537.489C259.89 544.138 258.487 545.67 251.708 543.771C227.968 537.086 205.33 526.977 184.505 513.763C180.187 511.065 178.914 508.82 181.396 503.682C201.775 461.37 226.472 421.928 258.098 387.107C268.892 375.191 280.636 364.245 294.798 356.387C300.507 353.045 306.883 351.003 313.471 350.408Z" fill="white"/>
<path d="M315.48 275.087C305.852 275.238 298.21 271.568 290.805 266.927C271.117 254.47 255.898 237.351 241.628 219.433C218.219 189.689 198.206 157.424 181.959 123.237C179.455 118.056 179.304 115.056 184.852 111.666C205.788 98.623 228.454 88.5872 252.184 81.8533C258.423 80.1047 259.87 81.2488 260.129 87.682C261.726 126.648 265.051 165.399 275.413 203.242C279.515 218.203 284.458 232.861 293.979 245.447C306.456 261.94 322.971 262.134 335.125 245.447C349.697 225.456 354.857 201.839 359.563 178.2C365.205 148.648 368.318 118.669 368.867 88.5887C369.04 81.4215 371.026 79.9535 377.913 82.1123C401.623 88.9229 424.233 99.101 445.051 112.335C448.721 114.667 450.297 116.653 448.095 121.273C424.176 170.558 395.723 216.692 355.159 254.319C344.84 263.904 333.571 272.302 319.129 274.979C317.916 275.1 316.697 275.136 315.48 275.087Z" fill="white"/>
<path d="M351.576 313.427C352.116 302.633 356.844 293.61 362.91 285.126C378.777 262.89 399.609 245.857 421.413 229.882C447.129 211.143 474.492 194.777 503.167 180.985C508.736 178.265 511.802 178.179 515.537 184.073C528.304 204.833 538.271 227.19 545.177 250.563C547.336 257.601 545.306 259.047 538.398 259.199C496.777 260.386 455.522 264.531 415.347 276.642C403.734 279.879 392.725 284.983 382.749 291.753C364.658 304.555 364.637 322.494 382.9 335.102C401.164 347.709 421.888 352.782 442.958 357.208C474.681 363.705 506.948 367.182 539.326 367.592C545.803 367.7 546.882 369.448 545.22 375.363C538.587 399.454 528.378 422.412 514.932 443.473C512.924 446.582 511.5 449.95 506.297 447.337C455.738 422.662 408.374 393.519 370.293 351.357C364.061 344.582 358.959 336.848 355.181 328.453C353.039 323.718 351.815 318.619 351.576 313.427Z" fill="white"/>
<path d="M276.492 312.434C275.959 321.267 273.05 329.792 268.073 337.109C254.279 358.697 235.108 375.147 215.075 390.561C186.822 412.102 156.441 430.7 124.405 446.064C118.339 449.021 115.77 447.834 112.316 442.394C99.7912 422.488 90.1669 400.899 83.7338 378.277C80.8626 367.915 80.8194 368.109 91.1816 367.721C131.918 366.145 172.352 362.281 211.599 350.451C223.71 346.802 235.475 342.226 245.73 334.605C263.194 321.652 263.453 305.029 245.73 292.336C227.661 279.383 206.396 274.159 185.046 269.668C153.617 263.154 121.635 259.67 89.5409 259.263C81.8772 259.134 81.1648 256.565 83.0646 250.175C89.7624 226.735 99.7645 204.368 112.77 183.748C115.835 178.891 118.512 177.898 123.736 180.446C169.503 202.983 212.463 229.58 248.795 265.847C260.194 277.224 270.599 289.465 275.197 305.44C275.747 307.748 276.179 310.082 276.492 312.434Z" fill="white"/>
</svg>
