<svg width="627" height="627" viewBox="0 0 627 627" fill="none" xmlns="http://www.w3.org/2000/svg">
<rect width="627" height="627" rx="313.5" fill="#9FE870"/>
<g clip-path="url(#clip0_352_318)">
<path d="M94.084 251.862V186.449L168.224 228.645V144.878L226.303 111.685V328.207L94.084 251.862Z" fill="#163300"/>
<path d="M258.686 242.567V94.2864L314.09 60.8345V144.61L388.223 102.317L446.034 136.847L258.686 242.567Z" fill="#163300"/>
<path d="M475.653 153.167L346.65 229.002L533.642 336.416V271.473L461.56 228.288L532.573 186.895L475.653 153.167Z" fill="#163300"/>
<path d="M533.998 373.53V438.838L461.203 397.088V480.231L403.035 513.78L403.748 296.092L533.998 373.53Z" fill="#163300"/>
<path d="M317.031 564.809L373.238 531.617V381.205L187.494 488.797L243.693 522.524L314.357 481.301L317.031 564.809Z" fill="#163300"/>
<path d="M97.9178 439.195L154.66 473.449L283.127 397.088L95.4219 287.17V353.547L169.295 396.375L97.9178 439.195Z" fill="#163300"/>
</g>
<defs>
<clipPath id="clip0_352_318">
<rect width="439.915" height="503.975" fill="white" transform="translate(94.084 60.8345)"/>
</clipPath>
</defs>
</svg>
