<svg width="24" height="22" viewBox="0 0 24 22" fill="none" xmlns="http://www.w3.org/2000/svg">
<path d="M0 6.84375C0.863639 6.99848 1.64536 7.45201 2.20835 8.12495C2.77134 8.79789 3.07975 9.64739 3.0796 10.5248C3.08118 11.4026 2.77329 12.2528 2.21004 12.926C1.6468 13.5993 0.864269 14.0524 0 14.2058L0 6.84375Z" fill="#EB5050"/>
<path d="M4.52881 5.6084C5.67955 5.81132 6.72288 6.41088 7.47759 7.30296C8.2323 8.19503 8.65073 9.32327 8.6602 10.4917C8.66967 11.6602 8.26959 12.7951 7.52944 13.6993C6.78929 14.6034 5.75582 15.2198 4.60852 15.4414L4.52881 5.6084Z" fill="#EB5050"/>
<path d="M10.1094 1.61572C11.7188 2.47348 13.0673 3.74925 14.0128 5.30875C14.9583 6.86825 15.466 8.6538 15.4823 10.4775C15.4986 12.3012 15.023 14.0955 14.1055 15.6717C13.188 17.2478 11.8626 18.5475 10.2688 19.434L10.1094 1.61572Z" fill="#EB5050"/>
<path d="M16.9321 0C18.93 0.939239 20.6193 2.42773 21.8026 4.2915C22.9859 6.15527 23.6142 8.31734 23.6142 10.525C23.6142 12.7327 22.9859 14.8947 21.8026 16.7585C20.6193 18.6223 18.93 20.1108 16.9321 21.05V0Z" fill="#EB5050"/>
</svg>
