<svg width="627" height="627" viewBox="0 0 627 627" fill="none" xmlns="http://www.w3.org/2000/svg">
<rect width="627" height="627" rx="109" fill="#1775E0"/>
<path d="M313.604 341.667C322.137 341.849 328.714 345.295 334.96 349.52C347.502 357.969 357.691 368.921 367.167 380.518C386.556 404.442 403.04 430.581 416.274 458.386C418.212 462.395 418.262 464.632 413.988 467.266C398.083 477.104 380.932 484.766 362.992 490.047C357.277 491.703 356.266 489.848 356.117 484.762C355.206 455.702 352.389 426.858 345 398.61C342.101 387.559 338.588 376.658 332.061 367.131C321.01 350.928 307.375 350.978 296.639 367.496C287.378 381.777 283.633 398.129 280.27 414.515C275.515 437.842 273.643 461.501 272.682 485.242C272.483 490.345 271.407 491.521 266.204 490.063C247.985 484.933 230.611 477.175 214.629 467.034C211.316 464.963 210.338 463.24 212.243 459.297C227.883 426.825 246.837 396.556 271.108 369.832C279.392 360.687 288.405 352.287 299.273 346.256C303.655 343.691 308.548 342.124 313.604 341.667Z" fill="#F4FFFE"/>
<path d="M315.145 283.862C307.756 283.978 301.891 281.162 296.209 277.6C281.099 268.04 269.419 254.902 258.468 241.151C240.503 218.324 225.143 193.562 212.675 167.325C210.753 163.349 210.637 161.046 214.895 158.445C230.963 148.435 248.357 140.733 266.569 135.565C271.357 134.223 272.467 135.101 272.666 140.039C273.892 169.943 276.443 199.682 284.396 228.725C287.544 240.207 291.338 251.456 298.644 261.115C308.22 273.773 320.894 273.922 330.222 261.115C341.405 245.773 345.365 227.648 348.977 209.507C353.307 186.827 355.696 163.82 356.117 140.734C356.25 135.234 357.774 134.107 363.059 135.764C381.255 140.991 398.607 148.802 414.584 158.959C417.401 160.748 418.61 162.272 416.921 165.818C398.564 203.642 376.727 239.047 345.597 267.924C337.677 275.28 329.029 281.725 317.945 283.779C317.015 283.872 316.08 283.9 315.145 283.862Z" fill="#F4FFFE"/>
<path d="M342.848 313.287C343.262 305.003 346.89 298.077 351.546 291.566C363.723 274.502 379.711 261.43 396.444 249.17C416.179 234.789 437.179 222.229 459.186 211.644C463.46 209.557 465.813 209.49 468.679 214.013C478.477 229.946 486.126 247.104 491.426 265.042C493.083 270.443 491.526 271.553 486.224 271.669C454.282 272.58 422.621 275.761 391.788 285.055C382.876 287.54 374.427 291.457 366.771 296.653C352.888 306.477 352.871 320.245 366.887 329.92C380.904 339.596 396.808 343.489 412.978 346.886C437.324 351.872 462.087 354.54 486.936 354.855C491.907 354.938 492.735 356.28 491.459 360.819C486.369 379.307 478.534 396.927 468.215 413.09C466.674 415.476 465.581 418.06 461.588 416.056C422.787 397.119 386.437 374.752 357.212 342.396C352.429 337.196 348.513 331.261 345.614 324.818C343.97 321.184 343.031 317.271 342.848 313.287Z" fill="#F4FFFE"/>
<path d="M285.225 312.524C284.815 319.303 282.583 325.846 278.763 331.461C268.177 348.029 253.465 360.653 238.09 372.483C216.407 389.015 193.091 403.287 168.506 415.078C163.85 417.348 161.879 416.437 159.228 412.261C149.616 396.985 142.229 380.416 137.292 363.056C135.089 355.103 135.056 355.252 143.008 354.954C174.271 353.745 205.302 350.779 235.422 341.7C244.717 338.9 253.746 335.388 261.616 329.539C275.019 319.599 275.218 306.842 261.616 297.1C247.749 287.159 231.43 283.15 215.044 279.704C190.924 274.704 166.38 272.03 141.749 271.718C135.867 271.619 135.321 269.647 136.779 264.743C141.919 246.754 149.595 229.589 159.576 213.765C161.928 210.037 163.983 209.275 167.992 211.23C203.115 228.526 236.085 248.938 263.968 276.771C272.716 285.502 280.702 294.896 284.231 307.156C284.652 308.928 284.984 310.719 285.225 312.524Z" fill="#F4FFFE"/>
</svg>
