<svg width="14" height="14" viewBox="0 0 14 14" fill="none" xmlns="http://www.w3.org/2000/svg">
<path d="M7 0C12.6 0 14 1.4 14 7C14 12.6 12.6 14 7 14C1.4 14 0 12.6 0 7C0 1.4 1.4 0 7 0Z" fill="#F9F9F9"/>
<path d="M7.62533 4.70813L9.29199 6.3748M3.66699 10.3331H5.33366L9.70866 5.95813C9.81809 5.8487 9.9049 5.71878 9.96413 5.5758C10.0234 5.43281 10.0538 5.27956 10.0538 5.1248C10.0538 4.97004 10.0234 4.81679 9.96413 4.6738C9.9049 4.53082 9.81809 4.4009 9.70866 4.29147C9.59922 4.18203 9.46931 4.09522 9.32632 4.036C9.18334 3.97677 9.03009 3.94629 8.87533 3.94629C8.72056 3.94629 8.56731 3.97677 8.42433 4.036C8.28135 4.09522 8.15143 4.18203 8.04199 4.29147L3.66699 8.66647V10.3331Z" stroke="#858A97" stroke-width="0.78125" stroke-linecap="round" stroke-linejoin="round"/>
</svg>
